<svg id="Capa_1" data-name="Capa 1" xmlns="http://www.w3.org/2000/svg" viewBox="0 0 512 512"><defs><style>.cls-1{fill:#fff;}.cls-2{fill:#1f1f1f;}</style></defs><title>play-button</title><path class="cls-1" d="M256,0C114.62,0,0,114.61,0,256S114.62,512,256,512,512,397.39,512,256,397.38,0,256,0Zm88.48,269.57-128,80A16,16,0,0,1,192,336V176a16,16,0,0,1,24.48-13.57l128,80a16,16,0,0,1,0,27.14Z"/><path class="cls-2" d="M344.48,269.57l-128,80A16,16,0,0,1,192,336V176a16,16,0,0,1,24.48-13.57l128,80a16,16,0,0,1,0,27.14Z"/></svg>